<svg width="138" height="144" viewBox="0 0 138 144" fill="none" xmlns="http://www.w3.org/2000/svg">
<path opacity="0.34" d="M72.4862 135.35C72.6241 137.554 74.5258 139.243 76.7179 138.969C85.6607 137.852 94.2876 134.88 102.039 130.225C110.935 124.883 118.418 117.482 123.857 108.644C129.296 99.8067 132.533 89.7917 133.294 79.4425C133.957 70.4253 132.724 61.3843 129.691 52.8976C128.948 50.8172 126.584 49.8802 124.553 50.7504L71.285 73.5814C69.7305 74.2477 68.763 75.8196 68.8686 77.5076L72.4862 135.35Z" fill="#0F56EC"/>
<path d="M100 31.5C100 46.3125 89.776 58.737 76 62.1017C68.5 63.9335 71.0845 75 68.5 75C65.9155 75 68.5 63.9335 61 62.1017C47.224 58.737 37 46.3125 37 31.5C37 14.103 51.103 0 68.5 0C85.897 0 100 14.103 100 31.5Z" fill="#0F56EC"/>
<path d="M68.6667 15C71.6061 15 74.4252 16.1677 76.5038 18.2462C78.5823 20.3248 79.75 23.1439 79.75 26.0833C79.75 29.0228 78.5823 31.8419 76.5038 33.9204C74.4252 35.999 71.6061 37.1667 68.6667 37.1667C65.7272 37.1667 62.9081 35.999 60.8296 33.9204C58.751 31.8419 57.5833 29.0228 57.5833 26.0833C57.5833 23.1439 58.751 20.3248 60.8296 18.2462C62.9081 16.1677 65.7272 15 68.6667 15ZM68.6667 18.1667C66.567 18.1667 64.5534 19.0007 63.0687 20.4854C61.5841 21.9701 60.75 23.9837 60.75 26.0833C60.75 28.183 61.5841 30.1966 63.0687 31.6813C64.5534 33.1659 66.567 34 68.6667 34C69.7063 34 70.7357 33.7952 71.6962 33.3974C72.6567 32.9995 73.5295 32.4164 74.2646 31.6813C74.9997 30.9461 75.5829 30.0734 75.9807 29.1129C76.3786 28.1524 76.5833 27.123 76.5833 26.0833C76.5833 23.9837 75.7493 21.9701 74.2646 20.4854C72.7799 19.0007 70.7663 18.1667 68.6667 18.1667ZM68.6667 21.3333C69.9264 21.3333 71.1346 21.8338 72.0254 22.7246C72.9162 23.6154 73.4167 24.8236 73.4167 26.0833C73.4167 27.3431 72.9162 28.5513 72.0254 29.4421C71.1346 30.3329 69.9264 30.8333 68.6667 30.8333C67.4069 30.8333 66.1987 30.3329 65.3079 29.4421C64.4171 28.5513 63.9167 27.3431 63.9167 26.0833C63.9167 24.8236 64.4171 23.6154 65.3079 22.7246C66.1987 21.8338 67.4069 21.3333 68.6667 21.3333ZM59.1667 46.6667C58.3268 46.6667 57.5214 46.333 56.9275 45.7392C56.3336 45.1453 56 44.3399 56 43.5C56 42.8983 56.1583 42.3442 56.4592 41.8692L59.3408 36.8658C61.9324 39.1038 65.2426 40.3345 68.6667 40.3333C72.2292 40.3333 75.4908 39.0192 77.9925 36.8658L80.8742 41.8692C81.175 42.3442 81.3333 42.8983 81.3333 43.5C81.3333 44.3399 80.9997 45.1453 80.4058 45.7392C79.812 46.333 79.0065 46.6667 78.1667 46.6667H59.1667Z" fill="white"/>
</svg>
